<svg width="1024" height="1024" viewBox="0 0 1024 1024" fill="none" xmlns="http://www.w3.org/2000/svg">
  <defs>
    <linearGradient id="baseFillV18" x1="120" y1="88" x2="900" y2="944" gradientUnits="userSpaceOnUse">
      <stop offset="0" stop-color="#DCE3E7"/>
      <stop offset="1" stop-color="#C3CCD1"/>
    </linearGradient>
    <linearGradient id="bandFillV18" x1="156" y1="98" x2="868" y2="244" gradientUnits="userSpaceOnUse">
      <stop offset="0" stop-color="#5F736C"/>
      <stop offset="0.52" stop-color="#4B5E57"/>
      <stop offset="1" stop-color="#3B4B46"/>
    </linearGradient>
    <linearGradient id="lineStrongV18" x1="178" y1="366" x2="846" y2="366" gradientUnits="userSpaceOnUse">
      <stop offset="0" stop-color="#607383"/>
      <stop offset="1" stop-color="#6D8090"/>
    </linearGradient>
    <linearGradient id="lineLightV18" x1="178" y1="514" x2="790" y2="886" gradientUnits="userSpaceOnUse">
      <stop offset="0" stop-color="#80909B"/>
      <stop offset="1" stop-color="#93A0AA"/>
    </linearGradient>
  </defs>

  <rect width="1024" height="1024" fill="url(#baseFillV18)"/>

  <rect x="156" y="94" width="712" height="164" rx="40" fill="url(#bandFillV18)"/>

  <rect x="194" y="136" width="392" height="14" rx="7" fill="#E9F0EC" fill-opacity="0.82"/>
  <rect x="194" y="172" width="308" height="12" rx="6" fill="#E9F0EC" fill-opacity="0.58"/>

  <rect x="178" y="346" width="668" height="48" rx="24" fill="url(#lineStrongV18)"/>
  <rect x="178" y="510" width="550" height="42" rx="21" fill="url(#lineLightV18)" fill-opacity="0.98"/>
  <rect x="178" y="650" width="590" height="42" rx="21" fill="url(#lineLightV18)" fill-opacity="0.86"/>
  <rect x="178" y="784" width="480" height="38" rx="19" fill="url(#lineLightV18)" fill-opacity="0.74"/>
  <rect x="178" y="880" width="386" height="34" rx="17" fill="url(#lineLightV18)" fill-opacity="0.62"/>
</svg>
