<svg width="1024" height="1024" viewBox="0 0 1024 1024" fill="none" xmlns="http://www.w3.org/2000/svg">
  <defs>
    <linearGradient id="paperFillV10" x1="96" y1="60" x2="928" y2="958" gradientUnits="userSpaceOnUse">
      <stop offset="0" stop-color="#E8EDF0"/>
      <stop offset="1" stop-color="#D0D7DB"/>
    </linearGradient>
    <linearGradient id="paperEdgeV10" x1="84" y1="48" x2="942" y2="972" gradientUnits="userSpaceOnUse">
      <stop offset="0" stop-color="#F9FBFC" stop-opacity="0.96"/>
      <stop offset="1" stop-color="#B8C1C7" stop-opacity="0.84"/>
    </linearGradient>
    <linearGradient id="bandFillV10" x1="108" y1="104" x2="862" y2="216" gradientUnits="userSpaceOnUse">
      <stop offset="0" stop-color="#657A73"/>
      <stop offset="0.52" stop-color="#52645E"/>
      <stop offset="1" stop-color="#42524D"/>
    </linearGradient>
    <linearGradient id="foldFillV10" x1="780" y1="104" x2="944" y2="248" gradientUnits="userSpaceOnUse">
      <stop offset="0" stop-color="#F4F7F8"/>
      <stop offset="1" stop-color="#CFD7DB"/>
    </linearGradient>
    <linearGradient id="lineStrongV10" x1="168" y1="358" x2="856" y2="358" gradientUnits="userSpaceOnUse">
      <stop offset="0" stop-color="#6F8190"/>
      <stop offset="1" stop-color="#7D8E9C"/>
    </linearGradient>
    <linearGradient id="lineLightV10" x1="168" y1="500" x2="814" y2="882" gradientUnits="userSpaceOnUse">
      <stop offset="0" stop-color="#8F9CA7"/>
      <stop offset="1" stop-color="#A2ADB6"/>
    </linearGradient>
    <filter id="paperShadowV10" x="24" y="40" width="976" height="984" filterUnits="userSpaceOnUse" color-interpolation-filters="sRGB">
      <feFlood flood-opacity="0" result="BackgroundImageFix"/>
      <feColorMatrix in="SourceAlpha" type="matrix" values="0 0 0 0 0 0 0 0 0 0 0 0 0 0 0 0 0 0 127 0" result="hardAlpha"/>
      <feOffset dy="22"/>
      <feGaussianBlur stdDeviation="20"/>
      <feColorMatrix type="matrix" values="0 0 0 0 0.12549 0 0 0 0 0.14902 0 0 0 0 0.176471 0 0 0 0.18 0"/>
      <feBlend mode="normal" in2="BackgroundImageFix" result="effect1_dropShadow_1_1"/>
      <feBlend mode="normal" in="SourceGraphic" in2="effect1_dropShadow_1_1" result="shape"/>
    </filter>
  </defs>

  <rect width="1024" height="1024" fill="#000000" fill-opacity="0"/>

  <g filter="url(#paperShadowV10)">
    <path d="M56 116C56 80.6538 84.6538 52 120 52H796L952 208V840C952 901.856 901.856 952 840 952H184C122.144 952 72 901.856 72 840V132C72 123.163 64.8366 116 56 116Z" fill="url(#paperFillV10)"/>
    <path d="M56 116C56 80.6538 84.6538 52 120 52H796L952 208V840C952 901.856 901.856 952 840 952H184C122.144 952 72 901.856 72 840V132C72 123.163 64.8366 116 56 116Z" stroke="url(#paperEdgeV10)" stroke-width="4"/>

    <path d="M104 104C104 86.3269 118.327 72 136 72H790L876 158V220H104V104Z" fill="url(#bandFillV10)"/>
    <path d="M104 220H876" stroke="#3D4D48" stroke-opacity="0.3" stroke-width="3"/>

    <path d="M796 52L952 208H848C819.281 208 796 184.719 796 156V52Z" fill="url(#foldFillV10)"/>
    <path d="M796 52L952 208H848C819.281 208 796 184.719 796 156V52Z" stroke="#D3DBDF" stroke-width="4" stroke-linejoin="round"/>
    <path d="M797 54V156C797 184.166 819.834 207 848 207H950" stroke="#899893" stroke-width="3.5" stroke-linecap="round"/>

    <rect x="166" y="118" width="462" height="12" rx="6" fill="#EEF5F1" fill-opacity="0.82"/>
    <rect x="166" y="152" width="378" height="10" rx="5" fill="#EEF5F1" fill-opacity="0.6"/>

    <rect x="168" y="350" width="688" height="46" rx="23" fill="url(#lineStrongV10)"/>
    <rect x="168" y="506" width="570" height="40" rx="20" fill="url(#lineLightV10)" fill-opacity="0.96"/>
    <rect x="168" y="644" width="612" height="40" rx="20" fill="url(#lineLightV10)" fill-opacity="0.84"/>
    <rect x="168" y="776" width="496" height="36" rx="18" fill="url(#lineLightV10)" fill-opacity="0.72"/>
    <rect x="168" y="870" width="400" height="32" rx="16" fill="url(#lineLightV10)" fill-opacity="0.6"/>
  </g>
</svg>
