<svg width="1024" height="1024" viewBox="0 0 1024 1024" fill="none" xmlns="http://www.w3.org/2000/svg">
  <defs>
    <linearGradient id="paperFillV13" x1="88" y1="72" x2="936" y2="952" gradientUnits="userSpaceOnUse">
      <stop offset="0" stop-color="#E9EEF0"/>
      <stop offset="1" stop-color="#D3DADF"/>
    </linearGradient>
    <linearGradient id="paperEdgeV13" x1="74" y1="58" x2="950" y2="966" gradientUnits="userSpaceOnUse">
      <stop offset="0" stop-color="#FAFCFC" stop-opacity="0.96"/>
      <stop offset="1" stop-color="#BAC3C8" stop-opacity="0.84"/>
    </linearGradient>
    <linearGradient id="bandFillV13" x1="138" y1="136" x2="842" y2="268" gradientUnits="userSpaceOnUse">
      <stop offset="0" stop-color="#657A73"/>
      <stop offset="0.52" stop-color="#52645E"/>
      <stop offset="1" stop-color="#42524D"/>
    </linearGradient>
    <linearGradient id="lineStrongV13" x1="168" y1="358" x2="856" y2="358" gradientUnits="userSpaceOnUse">
      <stop offset="0" stop-color="#6F8190"/>
      <stop offset="1" stop-color="#7D8E9C"/>
    </linearGradient>
    <linearGradient id="lineLightV13" x1="168" y1="500" x2="814" y2="882" gradientUnits="userSpaceOnUse">
      <stop offset="0" stop-color="#8F9CA7"/>
      <stop offset="1" stop-color="#A2ADB6"/>
    </linearGradient>
    <filter id="paperShadowV13" x="28" y="44" width="968" height="964" filterUnits="userSpaceOnUse" color-interpolation-filters="sRGB">
      <feFlood flood-opacity="0" result="BackgroundImageFix"/>
      <feColorMatrix in="SourceAlpha" type="matrix" values="0 0 0 0 0 0 0 0 0 0 0 0 0 0 0 0 0 0 127 0" result="hardAlpha"/>
      <feOffset dy="22"/>
      <feGaussianBlur stdDeviation="20"/>
      <feColorMatrix type="matrix" values="0 0 0 0 0.12549 0 0 0 0 0.14902 0 0 0 0 0.176471 0 0 0 0.18 0"/>
      <feBlend mode="normal" in2="BackgroundImageFix" result="effect1_dropShadow_1_1"/>
      <feBlend mode="normal" in="SourceGraphic" in2="effect1_dropShadow_1_1" result="shape"/>
    </filter>
  </defs>

  <rect width="1024" height="1024" fill="#000000" fill-opacity="0"/>

  <g filter="url(#paperShadowV13)">
    <rect x="72" y="56" width="880" height="896" rx="112" fill="url(#paperFillV13)"/>
    <rect x="72" y="56" width="880" height="896" rx="112" stroke="url(#paperEdgeV13)" stroke-width="4"/>

    <rect x="116" y="100" width="792" height="176" rx="52" fill="url(#bandFillV13)"/>

    <rect x="166" y="148" width="462" height="12" rx="6" fill="#EEF5F1" fill-opacity="0.82"/>
    <rect x="166" y="182" width="378" height="10" rx="5" fill="#EEF5F1" fill-opacity="0.6"/>

    <rect x="168" y="350" width="688" height="46" rx="23" fill="url(#lineStrongV13)"/>
    <rect x="168" y="506" width="570" height="40" rx="20" fill="url(#lineLightV13)" fill-opacity="0.96"/>
    <rect x="168" y="644" width="612" height="40" rx="20" fill="url(#lineLightV13)" fill-opacity="0.84"/>
    <rect x="168" y="776" width="496" height="36" rx="18" fill="url(#lineLightV13)" fill-opacity="0.72"/>
    <rect x="168" y="870" width="400" height="32" rx="16" fill="url(#lineLightV13)" fill-opacity="0.6"/>
  </g>
</svg>
