<svg width="1024" height="1024" viewBox="0 0 1024 1024" fill="none" xmlns="http://www.w3.org/2000/svg">
  <defs>
    <linearGradient id="paperFillV14" x1="88" y1="72" x2="936" y2="952" gradientUnits="userSpaceOnUse">
      <stop offset="0" stop-color="#DDE4E8"/>
      <stop offset="1" stop-color="#C4CDD3"/>
    </linearGradient>
    <linearGradient id="paperEdgeV14" x1="74" y1="58" x2="950" y2="966" gradientUnits="userSpaceOnUse">
      <stop offset="0" stop-color="#F4F8F9" stop-opacity="0.9"/>
      <stop offset="1" stop-color="#AEB9C0" stop-opacity="0.82"/>
    </linearGradient>
    <linearGradient id="bandFillV14" x1="138" y1="136" x2="842" y2="268" gradientUnits="userSpaceOnUse">
      <stop offset="0" stop-color="#5E726B"/>
      <stop offset="0.52" stop-color="#4B5D57"/>
      <stop offset="1" stop-color="#3B4A46"/>
    </linearGradient>
    <linearGradient id="lineStrongV14" x1="168" y1="358" x2="856" y2="358" gradientUnits="userSpaceOnUse">
      <stop offset="0" stop-color="#617484"/>
      <stop offset="1" stop-color="#6E8190"/>
    </linearGradient>
    <linearGradient id="lineLightV14" x1="168" y1="500" x2="814" y2="882" gradientUnits="userSpaceOnUse">
      <stop offset="0" stop-color="#7F8E9A"/>
      <stop offset="1" stop-color="#919EA8"/>
    </linearGradient>
    <filter id="paperShadowV14" x="28" y="44" width="968" height="964" filterUnits="userSpaceOnUse" color-interpolation-filters="sRGB">
      <feFlood flood-opacity="0" result="BackgroundImageFix"/>
      <feColorMatrix in="SourceAlpha" type="matrix" values="0 0 0 0 0 0 0 0 0 0 0 0 0 0 0 0 0 0 127 0" result="hardAlpha"/>
      <feOffset dy="22"/>
      <feGaussianBlur stdDeviation="20"/>
      <feColorMatrix type="matrix" values="0 0 0 0 0.109804 0 0 0 0 0.129412 0 0 0 0 0.152941 0 0 0 0.2 0"/>
      <feBlend mode="normal" in2="BackgroundImageFix" result="effect1_dropShadow_1_1"/>
      <feBlend mode="normal" in="SourceGraphic" in2="effect1_dropShadow_1_1" result="shape"/>
    </filter>
  </defs>

  <rect width="1024" height="1024" fill="#000000" fill-opacity="0"/>

  <g filter="url(#paperShadowV14)">
    <rect x="72" y="56" width="880" height="896" rx="112" fill="url(#paperFillV14)"/>
    <rect x="72" y="56" width="880" height="896" rx="112" stroke="url(#paperEdgeV14)" stroke-width="4"/>

    <rect x="116" y="100" width="792" height="176" rx="52" fill="url(#bandFillV14)"/>

    <rect x="166" y="148" width="462" height="12" rx="6" fill="#E8F0EC" fill-opacity="0.78"/>
    <rect x="166" y="182" width="378" height="10" rx="5" fill="#E8F0EC" fill-opacity="0.56"/>

    <rect x="168" y="350" width="688" height="46" rx="23" fill="url(#lineStrongV14)"/>
    <rect x="168" y="506" width="570" height="40" rx="20" fill="url(#lineLightV14)" fill-opacity="0.96"/>
    <rect x="168" y="644" width="612" height="40" rx="20" fill="url(#lineLightV14)" fill-opacity="0.84"/>
    <rect x="168" y="776" width="496" height="36" rx="18" fill="url(#lineLightV14)" fill-opacity="0.72"/>
    <rect x="168" y="870" width="400" height="32" rx="16" fill="url(#lineLightV14)" fill-opacity="0.6"/>
  </g>
</svg>
